<svg data-v-423bf9ae="" xmlns="http://www.w3.org/2000/svg" viewBox="0 0 253.37142399379184 185" class="iconAbove"><!----><!----><!----><g data-v-423bf9ae="" id="7bcf659a-e866-4ad9-8ddd-6f6dd5dda18d" fill="#2B1200" transform="matrix(4.285714285714286,0,0,4.285714285714286,0.2999967230217777,116.90890908241272)"><path d="M-0.07 6.16L2.87 12.95L4.84 8.89L6.93 12.95L9.80 6.16L8.26 6.16L6.82 9.91L4.83 5.81L2.97 9.90L1.47 6.16ZM15.23 8.69L11.68 8.69C11.74 8.26 11.95 7.92 12.31 7.66C12.67 7.41 13.09 7.28 13.55 7.28C14.54 7.28 15.10 7.75 15.23 8.69ZM11.65 9.73L16.77 9.73C16.79 9.61 16.80 9.45 16.80 9.25C16.80 8.25 16.51 7.45 15.92 6.88C15.33 6.31 14.54 6.02 13.55 6.02C12.54 6.02 11.73 6.33 11.10 6.96C10.46 7.59 10.15 8.40 10.15 9.38C10.15 10.38 10.45 11.19 11.05 11.81C11.66 12.43 12.49 12.74 13.55 12.74C14.96 12.74 15.99 12.24 16.65 11.24L15.54 10.56C15.19 11.13 14.52 11.41 13.55 11.41C13.04 11.41 12.61 11.27 12.26 10.98C11.92 10.69 11.71 10.27 11.65 9.73ZM22.72 8.69L19.17 8.69C19.23 8.26 19.44 7.92 19.80 7.66C20.16 7.41 20.58 7.28 21.04 7.28C22.03 7.28 22.59 7.75 22.72 8.69ZM19.14 9.73L24.26 9.73C24.28 9.61 24.29 9.45 24.29 9.25C24.29 8.25 24.00 7.45 23.41 6.88C22.82 6.31 22.03 6.02 21.04 6.02C20.03 6.02 19.21 6.33 18.58 6.96C17.95 7.59 17.64 8.40 17.64 9.38C17.64 10.38 17.94 11.19 18.54 11.81C19.14 12.43 19.98 12.74 21.04 12.74C22.45 12.74 23.48 12.24 24.14 11.24L23.03 10.56C22.68 11.13 22.01 11.41 21.04 11.41C20.53 11.41 20.10 11.27 19.75 10.98C19.41 10.69 19.20 10.27 19.14 9.73ZM25.62 1.68L25.62 12.60L27.09 12.60L27.09 9.34L29.75 12.60L31.57 12.60L28.49 8.82L31.29 6.16L29.47 6.16L27.09 8.43L27.09 1.68ZM31.64 9.38C31.64 10.44 31.95 11.27 32.58 11.86C33.20 12.45 33.98 12.74 34.90 12.74C35.90 12.74 36.66 12.31 37.17 11.45L37.17 12.60L38.64 12.60L38.64 1.68L37.17 1.68L37.17 7.31C36.66 6.45 35.90 6.02 34.90 6.02C33.98 6.02 33.20 6.31 32.58 6.90C31.95 7.49 31.64 8.32 31.64 9.38ZM33.12 9.38C33.12 8.73 33.31 8.22 33.69 7.87C34.07 7.52 34.57 7.35 35.18 7.35C35.73 7.35 36.20 7.52 36.59 7.85C36.98 8.18 37.17 8.69 37.17 9.38C37.17 10.07 36.98 10.58 36.59 10.91C36.20 11.24 35.73 11.41 35.18 11.41C34.57 11.41 34.07 11.23 33.69 10.88C33.31 10.54 33.12 10.03 33.12 9.38ZM41.10 8.01C41.75 7.54 42.41 7.31 43.09 7.31C44.00 7.31 44.45 7.56 44.45 8.05L44.45 8.90C43.98 8.65 43.43 8.53 42.78 8.53C41.96 8.53 41.28 8.72 40.73 9.11C40.18 9.51 39.90 10.06 39.90 10.78C39.90 11.43 40.13 11.92 40.59 12.25C41.04 12.58 41.60 12.74 42.25 12.74C42.75 12.74 43.19 12.65 43.57 12.46C43.96 12.27 44.25 12.01 44.45 11.68L44.45 12.60L45.92 12.60L45.92 7.98C45.92 7.32 45.66 6.82 45.15 6.50C44.64 6.18 43.95 6.02 43.09 6.02C42.18 6.02 41.33 6.30 40.56 6.87ZM41.31 10.64C41.31 10.36 41.47 10.12 41.78 9.90C42.08 9.70 42.49 9.59 42.98 9.59C43.51 9.59 44.00 9.67 44.45 9.84L44.45 10.08C44.45 10.65 44.30 11.05 44.01 11.27C43.71 11.49 43.27 11.61 42.67 11.61C41.77 11.61 41.31 11.28 41.31 10.64ZM46.62 6.16L49.22 12.21L47.74 15.68L49.42 15.68L53.62 6.16L51.94 6.16L50.12 10.71L48.30 6.16ZM55.03 10.25L53.83 10.78C53.93 11.31 54.24 11.77 54.75 12.16C55.26 12.55 55.84 12.74 56.49 12.74C57.23 12.74 57.84 12.59 58.32 12.28C58.81 11.97 59.05 11.52 59.05 10.92C59.05 10.31 58.87 9.84 58.50 9.51C58.13 9.17 57.65 8.89 57.06 8.68C56.58 8.50 56.22 8.34 55.99 8.20C55.75 8.05 55.64 7.89 55.64 7.71C55.64 7.39 55.92 7.22 56.48 7.22C56.99 7.22 57.41 7.46 57.75 7.92L58.88 7.28C58.68 6.91 58.36 6.60 57.94 6.37C57.51 6.14 57.02 6.02 56.46 6.02C55.85 6.02 55.31 6.17 54.85 6.48C54.39 6.79 54.17 7.20 54.17 7.71C54.17 8.66 54.85 9.35 56.22 9.79C56.65 9.92 56.98 10.07 57.20 10.23C57.43 10.40 57.54 10.62 57.54 10.88C57.54 11.23 57.21 11.41 56.56 11.41C56.21 11.41 55.88 11.31 55.59 11.11C55.30 10.91 55.12 10.62 55.03 10.25Z"></path></g><defs data-v-423bf9ae=""><linearGradient data-v-423bf9ae="" gradientTransform="rotate(25)" id="aa8ce95d-5ae1-4d3e-8115-115e29dc0013" x1="0%" y1="0%" x2="100%" y2="0%"><stop data-v-423bf9ae="" offset="0%" style="stop-color: rgb(121, 35, 0); stop-opacity: 1;"></stop><stop data-v-423bf9ae="" offset="100%" style="stop-color: rgb(243, 112, 0); stop-opacity: 1;"></stop></linearGradient></defs><g data-v-423bf9ae="" id="59368c5a-2b16-4ffe-bfa5-a3b1248aa3ae" transform="matrix(1.111100090874566,0,0,1.111100090874566,71.14355235081004,0.4455464626338994)" stroke="none" fill="url(#aa8ce95d-5ae1-4d3e-8115-115e29dc0013)"><path d="M27.997 30.284c8.328 0 15.171-6.843 15.171-15.171S36.325 0 27.997 0 12.884 6.785 12.884 15.113s6.784 15.171 15.113 15.171zm0-23.393c4.581 0 8.222 3.642 8.222 8.222s-3.642 8.223-8.222 8.223-8.222-3.642-8.222-8.223 3.641-8.222 8.222-8.222zM72.004 30.284c8.328 0 15.112-6.843 15.112-15.171S80.332 0 72.004 0 56.832 6.785 56.832 15.113s6.844 15.171 15.172 15.171zm0-23.393c4.58 0 8.222 3.642 8.222 8.222s-3.642 8.223-8.222 8.223c-4.581 0-8.223-3.642-8.223-8.223s3.642-8.222 8.223-8.222zM34.945 41.517c0 8.328 6.843 15.17 15.171 15.17s15.113-6.842 15.113-15.17-6.785-15.113-15.113-15.113-15.171 6.785-15.171 15.113zm15.171-8.222c4.581 0 8.165 3.642 8.165 8.222 0 4.581-3.584 8.222-8.165 8.222s-8.222-3.642-8.222-8.222a8.172 8.172 0 0 1 8.222-8.222zM16.589 91.488V38.333c0-.708.509-1.158 1.216-1.158a3.474 3.474 0 0 0 0-6.948c-4.429 0-8.107 3.677-8.107 8.106v53.156c0 4.43 3.678 8.106 8.107 8.106h11.117v-6.948H17.806c-.708-.001-1.217-.452-1.217-1.159zM82.194 30.226a3.474 3.474 0 0 0-.023 6.948h.023c.708 0 1.158.451 1.158 1.158v53.156c0 .707-.45 1.158-1.158 1.158H71.02v6.948h11.175c4.43 0 8.106-3.677 8.106-8.106V38.333c0-4.43-3.677-8.107-8.107-8.107zM60.307 59.814c-.916 0-1.838.342-2.49.984a3.436 3.436 0 0 0-1.041 2.432c0 .916.389 1.848 1.041 2.49a3.507 3.507 0 0 0 2.49.984c.707 0 1.158.451 1.158 1.158v24.03c0 .707-.451 1.158-1.158 1.158h-20.44c-.708 0-1.158-.451-1.158-1.158v-24.03c0-.707.45-1.158 1.158-1.158.916 0 1.838-.341 2.49-.984a3.568 3.568 0 0 0 1.042-2.489c0-.916-.39-1.789-1.042-2.433a3.512 3.512 0 0 0-2.49-.984c-4.429 0-8.106 3.62-8.106 8.049v24.03c0 4.429 3.677 8.106 8.106 8.106h20.44c4.43 0 8.107-3.678 8.107-8.106v-24.03c0-4.428-3.678-8.049-8.107-8.049z"></path></g><!----></svg>